<svg id="Laag_1" data-name="Laag 1" xmlns="http://www.w3.org/2000/svg" viewBox="0 0 235 109"><defs><style>.cls-1{fill:#fff;}.cls-2{font-size:30px;fill:#c35163;font-family:Gotham-UltraItalic, Gotham;font-style:italic;}</style></defs><path class="cls-1" d="M119,.17c20.65-.07,41.3,0,61.94-.29a51.25,51.25,0,0,1,33.11,11c11.85,9.16,19.1,21.21,20.89,36.13,2.38,19.74-4.45,36-19.54,48.83a49.94,49.94,0,0,1-25.24,11.63,81.35,81.35,0,0,1-11.27.53q-42.73.36-85.48.61c-13.07,0-26.15-.2-39.22-.24a47,47,0,0,1-26.49-8.23C16.46,92.63,8.39,82.61,4.57,69.4A54.2,54.2,0,0,1,31.92,6.22C37.09,3.57,42.48,1.38,48.28.8,53,.32,57.78.35,62.53.32,81.35.21,100.18.17,119,.1ZM18.19,54.51c-.63,18.74,15,39.24,40.46,38.63,19.52-.47,36.89-17.83,36.94-38.94,0-20.24-17.76-38.69-38.94-38.55C35.07,15.79,17.49,34.22,18.19,54.51Z"/><text class="cls-2" transform="translate(123.81 64.23)">Dark</text></svg>