<svg id="Laag_1" data-name="Laag 1" xmlns="http://www.w3.org/2000/svg" viewBox="0 0 233 109"><defs><style>.cls-1{fill:#c35163;}.cls-2{font-size:30px;fill:#fff;font-family:Gotham-UltraItalic, Gotham;font-style:italic;}</style></defs><path class="cls-1" d="M116,108.46c-20.65,0-41.3-.17-61.94.07A51.25,51.25,0,0,1,21,97.38C9.17,88.18,2,76.1.23,61.17-2.08,41.43,4.82,25.19,20,12.41A50,50,0,0,1,45.23.88,81.34,81.34,0,0,1,56.5.39C85,.26,113.49.11,142,.1c13.08,0,26.15.29,39.23.38A47,47,0,0,1,207.66,8.8c11.22,7.58,19.25,17.64,23,30.85a54.2,54.2,0,0,1-27.58,63.08c-5.18,2.63-10.57,4.8-16.38,5.37-4.72.46-9.5.41-14.25.42q-28.23.06-56.47,0Zm101-54c.7-18.74-14.85-39.3-40.32-38.78-19.52.4-36.95,17.7-37.08,38.8-.12,20.24,17.62,38.75,38.8,38.69C200,93.15,217.64,74.79,217,54.5Z"/><text class="cls-2" transform="translate(38.48 68)">Light</text></svg>